<?xml version="1.0" encoding="utf-8"?>
<!-- Generator: Adobe Illustrator 16.0.0, SVG Export Plug-In . SVG Version: 6.00 Build 0)  -->
<!DOCTYPE svg PUBLIC "-//W3C//DTD SVG 1.1//EN" "http://www.w3.org/Graphics/SVG/1.1/DTD/svg11.dtd">
<svg version="1.1" id="Capa_1" xmlns="http://www.w3.org/2000/svg" xmlns:xlink="http://www.w3.org/1999/xlink" x="0px" y="0px"
	 width="200px" height="200px" viewBox="6.667 0 200 200" enable-background="new 6.667 0 200 200" xml:space="preserve">
<g>
	<g>
		
			<linearGradient id="SVGID_1_" gradientUnits="userSpaceOnUse" x1="-27.9395" y1="210.5762" x2="-27.9395" y2="169.3438" gradientTransform="matrix(1 0 0 -1 116 279)">
			<stop  offset="0" style="stop-color:#9F1AAA"/>
			<stop  offset="0" style="stop-color:#9A21AD"/>
			<stop  offset="1" style="stop-color:#3FA9EA"/>
		</linearGradient>
		<path fill="url(#SVGID_1_)" d="M87.834,68.425h-0.297c-1.504,6.058-3.01,13.751-4.682,19.643l-6.045,21.588h22.5l-6.344-21.588
			C91.167,82.022,89.354,74.483,87.834,68.425z"/>
		
			<linearGradient id="SVGID_2_" gradientUnits="userSpaceOnUse" x1="-9.333" y1="281.5" x2="-9.333" y2="68.256" gradientTransform="matrix(1 0 0 -1 116 279)">
			<stop  offset="0" style="stop-color:#9F1AAA"/>
			<stop  offset="1" style="stop-color:#3FA9EA"/>
		</linearGradient>
		<path fill="url(#SVGID_2_)" d="M194.409,0H18.913C12.143,0,6.667,5.477,6.667,12.246v175.508c0,6.758,5.477,12.246,12.246,12.246
			H194.42c6.758,0,12.246-5.488,12.246-12.246V12.246C206.667,5.489,201.178,0,194.409,0z M110.489,152.984l-7.859-26.115H73.502
			l-7.254,26.115H42.397l31.105-101.75h30.182l31.568,101.75H110.489z M170.178,152.984h-22.963V79.166h22.963V152.984z
			 M158.559,70.108c-7.242,0-12.078-5.145-11.938-11.487c-0.145-6.65,4.693-11.605,12.104-11.605
			c7.387,0,12.068,4.967,12.211,11.605C170.936,64.963,166.112,70.108,158.559,70.108z"/>
	</g>
</g>
</svg>
