<?xml version="1.0" encoding="utf-8"?>
<!-- Generator: Adobe Illustrator 16.0.0, SVG Export Plug-In . SVG Version: 6.00 Build 0)  -->
<!DOCTYPE svg PUBLIC "-//W3C//DTD SVG 1.1//EN" "http://www.w3.org/Graphics/SVG/1.1/DTD/svg11.dtd">
<svg version="1.1" id="Layer_1" xmlns="http://www.w3.org/2000/svg" xmlns:xlink="http://www.w3.org/1999/xlink" x="0px" y="0px"
	 width="488px" height="488px" viewBox="8 6 488 488" enable-background="new 8 6 488 488" xml:space="preserve">
<g id="surface1">
	
		<linearGradient id="SVGID_1_" gradientUnits="userSpaceOnUse" x1="136" y1="574.5" x2="136" y2="83.4746" gradientTransform="matrix(1 0 0 -1 116 579)">
		<stop  offset="0" style="stop-color:#9F1AAA"/>
		<stop  offset="1" style="stop-color:#3FA9EA"/>
	</linearGradient>
	<path fill="url(#SVGID_1_)" d="M465.046,6H39C21.888,6,8,19.889,8,37v426.001C8,480.111,21.888,494,39,494h426.001
		c17.11,0,30.999-13.889,30.999-30.954V37C496,19.889,482.111,6,465.046,6z M275.238,379.942c0,46.431-27.232,67.581-66.991,67.581
		c-35.946,0-61.862-24.102-72.438-46.478l36.536-22.104c7.036,12.479,17.747,22.104,33.179,22.104
		c14.75,0,23.238-5.765,23.238-28.186V226.762h46.477L275.238,379.942L275.238,379.942z M376.042,447.523
		c-41.165,0-64.54-20.741-77.565-46.478l34.856-23.238c9.485,15.522,19.834,30.364,41.711,30.364
		c18.381,0,28.004-9.169,28.004-21.877c0-15.159-9.985-20.561-30.183-29.411l-11.074-4.766
		c-31.998-13.617-53.284-30.683-53.284-66.812c0-33.224,25.371-58.55,64.948-58.55c28.186,0,48.428,9.804,63.043,35.492
		l-34.495,22.194c-7.625-13.66-15.795-19.017-28.548-19.017c-12.98,0-21.195,8.261-21.195,19.017
		c0,13.299,8.215,18.654,27.232,26.916l11.074,4.766c37.717,16.112,58.957,32.588,58.957,69.623
		C449.523,425.647,418.161,447.523,376.042,447.523z"/>
</g>
</svg>
