<?xml version="1.0" encoding="utf-8"?>
<!-- Generator: Adobe Illustrator 16.0.0, SVG Export Plug-In . SVG Version: 6.00 Build 0)  -->
<!DOCTYPE svg PUBLIC "-//W3C//DTD SVG 1.1//EN" "http://www.w3.org/Graphics/SVG/1.1/DTD/svg11.dtd">
<svg version="1.1" id="Layer_1" xmlns="http://www.w3.org/2000/svg" xmlns:xlink="http://www.w3.org/1999/xlink" x="0px" y="0px"
	 width="500px" height="500px" viewBox="0 0 500 500" enable-background="new 0 0 500 500" xml:space="preserve">
<g id="surface1">
	<linearGradient id="SVGID_1_" gradientUnits="userSpaceOnUse" x1="251.0039" y1="1.5" x2="251.0039" y2="499.1103">
		<stop  offset="0" style="stop-color:#9F1AAA"/>
		<stop  offset="1" style="stop-color:#3FA9EA"/>
	</linearGradient>
	<path fill="url(#SVGID_1_)" d="M304.977,6.088c-1.17,0.173-2.34,0.52-3.467,1.04c-9.531,4.723-20.361,18.759-22.441,21.532
		c-0.129,0.173-0.26,0.347-0.346,0.52c-10.701,16.03-16.421,34.789-16.638,54.328c-0.13,14.644,2.729,29.157,8.535,43.15
		c13.517,32.45,41.591,59.311,74.993,71.875c1.127,0.39,2.209,0.78,4.158,1.473c0.174,0.087,1.818,0.606,2.078,0.65l1.215,0.433
		c1.731,0.563,3.51,1.126,5.242,1.473c8.793,1.776,17.371,2.773,25.432,3.033c1.387,0,2.771,0.043,4.158,0.043
		c60.782,0,84.353-42.891,92.191-57.188c0.78-1.386,1.344-2.513,1.863-3.206c0-0.043,0-0.043,0.043-0.086
		c3.423-5.069,2.123-11.958-2.945-15.423c-5.023-3.422-11.914-2.123-15.38,2.946h-0.044c-16.203,23.872-43.93,31.106-82.357,21.575
		c-2.858-0.693-5.979-1.776-8.752-2.816c-3.64-1.3-7.277-2.816-10.656-4.462c-6.715-3.336-13.041-7.322-18.76-11.741
		c-33.793-26.211-47.007-80.755-27.252-112.251c2.646-4.203,2.168-9.662-1.169-13.344C312.168,6.868,308.527,5.611,304.977,6.088z
		 M206.717,28.183c-2.513-0.043-5.069,0.78-7.148,2.513c-16.766,13.647-33.922,36.002-34.659,36.912
		c-0.087,0.173-0.173,0.303-0.303,0.477c-30.327,44.147-32.623,106.966-5.806,160.038c4.203,8.405,8.968,16.42,14.037,23.785
		l1.516,2.166c4.289,6.281,9.098,13.387,15.25,18.933c2.123,2.427,4.419,4.767,6.672,7.019l1.083,1.127l0.91,0.91
		c2.296,2.209,4.635,4.461,7.062,6.627h0.043c0.173,0.262,0.433,0.436,0.65,0.65c2.729,2.426,5.502,4.723,9.185,7.625l0.996,0.736
		c2.859,2.296,5.762,4.462,8.751,6.585c0.303,0.217,0.607,0.435,0.91,0.649c1.04,0.691,2.08,1.344,3.119,2.079l1.04,0.692
		l1.213,0.778c2.209,1.475,4.375,2.815,7.452,4.594c1.993,1.213,4.116,2.426,5.502,3.119c0.606,0.347,1.256,0.692,2.773,1.517
		l3.379,1.776c0.174,0.086,0.953,0.433,1.127,0.52c2.209,1.127,4.506,2.21,6.801,3.249l3.512,1.561
		c2.296,0.998,4.636,1.95,7.494,3.032l1.3,0.479c0.087,0.087,1.17,0.478,1.257,0.521c2.079,0.735,4.202,1.474,6.325,2.166
		l4.854,1.604c2.426,0.822,5.24,1.774,8.316,2.296c15.12,2.513,29.807,3.813,43.713,3.813c1.646,0,3.293-0.043,4.896-0.043
		C462.372,336,494.214,231.98,494.518,230.94c1.518-5.242-0.951-10.831-5.893-13.17c-4.938-2.339-10.831-0.693-13.907,3.813
		c-31.02,45.315-89.68,64.466-149.423,48.696c-2.773-0.693-5.459-1.475-8.795-2.559c-0.563-0.173-1.04-0.347-1.949-0.691
		c-1.949-0.606-3.855-1.256-6.021-2.08l-3.075-1.17c-1.776-0.692-3.554-1.385-5.72-2.338l-1.43-0.65
		c-2.644-1.126-5.199-2.383-7.496-3.51l-6.324-3.293c-1.43-0.692-2.687-1.473-4.637-2.644l-1.082-0.604l-1.084-0.65
		c-1.603-0.953-3.205-1.95-4.679-2.989l-1.04-0.65c-0.087-0.043-0.953-0.65-1.04-0.737c-1.3-0.823-2.556-1.646-3.769-2.426
		c-2.688-1.906-5.329-3.899-8.405-6.326l-1.213-0.996c-28.594-22.832-49.735-53.332-59.657-86.041
		c-9.228-30.023-2.383-69.318,18.326-105.104c2.687-4.636,1.69-10.528-2.426-13.994C211.743,29.093,209.23,28.183,206.717,28.183z
		 M84.674,61.456c-2.643,0-5.329,0.953-7.452,2.859c-21.185,19.019-37.042,43.67-38.775,46.486
		c-45.316,65.982-36.565,168.53-5.458,231.219c0.606,1.302,1.256,2.558,1.906,3.813l0.433,0.692c0.563,1.257,1.213,2.557,1.43,2.814
		c0.347,0.823,0.867,1.733,1.083,1.993c0.52,1.083,1.04,2.036,1.993,3.684l3.552,6.107c0.52,0.823,1.04,1.688,1.213,1.993
		c0.693,1.126,1.43,2.296,2.166,3.466l1.733,2.771c0.52,0.824,1.04,1.562,1.386,1.994c1.733,2.687,3.466,5.371,5.373,7.929
		c0.086,0.13,0.173,0.217,0.26,0.304l0.693,0.953c1.56,2.253,3.163,4.419,4.592,6.193l6.325,8.017
		c0.086,0.087,0.78,0.91,0.823,0.997l0.91,1.039c1.906,2.34,3.942,4.68,5.979,6.932c0.303,0.347,0.606,0.65,0.91,0.997
		c1.95,2.123,3.943,4.245,6.022,6.455l1.993,1.906c1.646,1.73,3.292,3.423,5.025,5.023c0,0.043,0.823,0.823,0.823,0.823l1.733,1.604
		c2.08,1.992,4.246,3.985,5.892,5.373c0.087,0.131,1.646,1.474,1.776,1.561c2.036,1.818,4.072,3.552,6.152,5.242l10.614,8.402
		c1.776,1.302,3.596,2.602,5.675,4.116c0.693,0.521,1.43,1.039,2.167,1.517c0.303,0.262,0.65,0.521,0.866,0.649l7.972,5.329
		c2.903,1.906,5.805,3.682,9.358,5.805l1.906,1.083c2.209,1.302,4.462,2.602,6.585,3.729c1.256,0.69,2.513,1.3,3.596,1.861
		c1.516,0.822,3.163,1.732,5.675,2.945c0.217,0.13,1.993,0.996,2.209,1.083c2.513,1.257,5.069,2.426,8.275,3.855
		c0,0.044,1.04,0.521,1.04,0.521c2.946,1.256,5.805,2.471,9.574,3.985c0.606,0.26,1.213,0.477,1.343,0.521
		c2.686,1.039,5.502,2.079,7.798,2.902c0.216,0.087,1.386,0.563,1.603,0.649c3.076,1.039,6.108,2.036,10.008,3.25
		c0.65,0.217,1.343,0.433,1.43,0.433l2.209,0.693c2.686,0.821,5.372,1.688,8.274,2.253c20.623,3.77,40.768,5.719,59.83,5.719h0.044
		c158.868,0,209.47-127.851,209.99-129.148c1.949-5.153-0.174-10.961-5.026-13.646c-4.766-2.645-10.83-1.388-14.21,2.989
		c-40.768,53.678-117.667,73.605-205.7,53.375c-2.123-0.521-4.289-1.127-6.412-1.776l-4.158-1.257
		c-2.816-0.866-5.632-1.819-8.361-2.772c-0.043,0-1.3-0.477-1.3-0.477c-2.426-0.823-4.852-1.776-6.975-2.601l-2.426-0.952
		c-2.686-1.083-5.372-2.21-7.972-3.381l-1.516-0.648c-2.339-1.083-4.592-2.122-6.845-3.249c-0.173-0.087-1.95-0.953-2.123-0.996
		c-1.56-0.779-3.12-1.604-5.112-2.688l-9.055-4.852c-0.91-0.607-1.863-1.17-2.773-1.646c-2.729-1.688-5.545-3.38-8.318-5.155
		c-0.65-0.391-1.213-0.822-2.296-1.561c-1.906-1.213-3.769-2.47-6.499-4.375l-1.083-0.779c-1.863-1.301-3.683-2.688-5.199-3.813
		c-0.953-0.692-1.906-1.473-3.466-2.643c-1.386-1.083-2.772-2.123-4.072-3.163l-2.426-1.992c-2.036-1.646-3.942-3.38-5.935-5.069
		c-0.26-0.26-0.477-0.433-0.78-0.647c-2.209-2.036-4.462-4.072-7.148-6.629l-7.842-7.8c-1.906-1.948-3.813-3.94-5.979-6.323
		c-1.993-2.21-3.899-4.419-6.456-7.452l-4.679-5.72c-0.563-0.822-1.17-1.646-1.906-2.513c-1.603-2.166-3.206-4.289-4.809-6.543
		c-43.15-59.438-54.415-183.52-20.795-228.966c3.379-4.549,2.773-10.961-1.473-14.817C90.003,62.409,87.317,61.456,84.674,61.456z"
		/>
</g>
</svg>
