<?xml version="1.0" encoding="utf-8"?>
<!-- Generator: Adobe Illustrator 16.0.0, SVG Export Plug-In . SVG Version: 6.00 Build 0)  -->
<!DOCTYPE svg PUBLIC "-//W3C//DTD SVG 1.1//EN" "http://www.w3.org/Graphics/SVG/1.1/DTD/svg11.dtd">
<svg version="1.1" id="Layer_3" xmlns="http://www.w3.org/2000/svg" xmlns:xlink="http://www.w3.org/1999/xlink" x="0px" y="0px"
	 width="768px" height="768px" viewBox="0 0 768 768" enable-background="new 0 0 768 768" xml:space="preserve">
<path fill-rule="evenodd" clip-rule="evenodd" fill="#F8F8F8" d="M383.89,37.91C192.76,37.98,37.91,192.87,37.91,383.99
	C37.9,575.12,192.74,730.02,383.86,730.09c191.34,0.07,346.38-155.01,346.23-346.32C729.95,192.63,575,37.83,383.89,37.91z
	 M224.85,500.17c-0.01,1.67-0.76,3.34-1.17,5.01c-1.5-0.52-3.16-0.779-4.48-1.59c-48.37-29.41-96.7-58.89-145.1-88.24
	c-3.1-1.88-4.27-3.89-4.22-7.52c0.19-16.48,0.18-32.98,0.01-49.47c-0.04-3.54,0.91-5.63,4.11-7.54
	c48.02-28.7,95.94-57.57,143.88-86.4c0.86-0.51,1.74-0.99,2.6-1.5c2.77-1.66,4.42-1.24,4.42,2.34c-0.01,21.32,0.09,42.65-0.18,63.97
	c-0.02,1.65-2.21,3.84-3.94,4.82c-26.9,15.34-53.89,30.52-80.86,45.74c-1.87,1.05-3.72,2.13-6.6,3.78c9.91,5.63,19,10.81,28.1,15.96
	c19.7,11.16,39.37,22.37,59.15,33.38c3.13,1.74,4.47,3.56,4.43,7.3C224.79,460.19,224.93,480.18,224.85,500.17z M517.04,404.08
	c0.01,91.32,0.04,182.63,0.05,273.95c0.01,1.939,0,3.89,0,5.83c-0.41,0.149-0.84,0.29-1.25,0.439
	C456.35,589.56,397,494.82,337,399.52V571.98c0,7.05,0,7.06-7.2,7.06c-24.16,0-48.319-0.14-72.479,0.11
	c-5.08,0.05-6.485-1.48-6.465-6.511c0.17-47.83,0.163-95.649,0.152-143.479C250.998,316.68,251,204.2,251,91.72v-6.46
	c0-0.19,0.78-0.39,1.19-0.58C311.66,179.39,371,274.11,431,369.48v-12.24c0-53.82,0.039-107.65-0.109-161.47
	c-0.01-4.73,1.569-5.92,6.049-5.89c24.66,0.18,49.325,0.2,73.985-0.02c4.83-0.04,6.218,1.47,6.208,6.25
	C517.003,265.44,517.03,334.76,517.04,404.08z M694.52,414.85c-48.699,29.561-97.35,59.2-146.01,88.82
	c-1.25,0.76-2.609,1.34-4.7,2.41c-0.34-2.22-0.81-3.87-0.81-5.521c-0.05-20.17,0.04-40.329-0.11-60.5
	c-0.029-3.439,1.061-5.329,4.08-7.029c27.46-15.391,54.83-30.94,82.221-46.46c1.43-0.811,2.829-1.69,4.88-2.93
	c-1.851-1.15-3.261-2.1-4.73-2.93c-27.41-15.49-54.84-30.92-82.17-46.55c-1.82-1.04-4-3.49-4.02-5.31
	c-0.271-21.33-0.17-42.66-0.141-64c0-0.8,0.271-1.6,0.61-3.45c2.25,1.07,3.899,1.7,5.399,2.6c48.41,29.06,96.79,58.17,145.25,87.17
	c2.82,1.69,3.74,3.56,3.711,6.76c-0.16,16.84-0.15,33.669-0.011,50.5C698,411.43,697.15,413.25,694.52,414.85z"/>
</svg>
