<?xml version="1.0" encoding="utf-8"?>
<!-- Generator: Adobe Illustrator 16.0.0, SVG Export Plug-In . SVG Version: 6.00 Build 0)  -->
<!DOCTYPE svg PUBLIC "-//W3C//DTD SVG 1.1//EN" "http://www.w3.org/Graphics/SVG/1.1/DTD/svg11.dtd">
<svg version="1.1" id="Capa_1" xmlns="http://www.w3.org/2000/svg" xmlns:xlink="http://www.w3.org/1999/xlink" x="0px" y="0px"
	 width="200px" height="200px" viewBox="13 0 200 200" enable-background="new 13 0 200 200" xml:space="preserve">
<g>
	<g>
		
			<linearGradient id="SVGID_1_" gradientUnits="userSpaceOnUse" x1="-30.5737" y1="278.5" x2="-30.5737" y2="79.7785" gradientTransform="matrix(1 0 0 -1 116 279)">
			<stop  offset="0" style="stop-color:#9F1AAA"/>
			<stop  offset="1" style="stop-color:#3FA9EA"/>
		</linearGradient>
		<path fill="url(#SVGID_1_)" d="M80.834,57.038c-5.06,0-8.494,0.492-10.28,0.996V90.56c2.129,0.48,4.729,0.641,8.323,0.641
			c13.246,0,21.421-6.698,21.421-17.986C100.286,63.095,93.257,57.038,80.834,57.038z"/>
		
			<linearGradient id="SVGID_2_" gradientUnits="userSpaceOnUse" x1="-2.9995" y1="278.5" x2="-2.9995" y2="79.7775" gradientTransform="matrix(1 0 0 -1 116 279)">
			<stop  offset="0" style="stop-color:#9F1AAA"/>
			<stop  offset="1" style="stop-color:#3FA9EA"/>
		</linearGradient>
		<path fill="url(#SVGID_2_)" d="M200.762,0.023H25.25C18.484,0.023,13,5.496,13,12.239v175.5c0,6.755,5.484,12.237,12.25,12.237
			h175.512c6.754,0,12.238-5.482,12.238-12.237V12.25C213,5.496,207.516,0.023,200.762,0.023z M114.826,98.735
			c-8.483,8.014-21.089,11.609-35.777,11.609c-3.286,0-6.217-0.16-8.507-0.492v39.407H45.847V40.541
			c7.684-1.294,18.468-2.278,33.684-2.278c15.353,0,26.32,2.931,33.659,8.827c7.063,5.564,11.792,14.723,11.792,25.508
			C124.982,83.383,121.375,92.507,114.826,98.735z M152.046,150.885c-10.485,0-19.795-2.268-25.851-5.553l4.406-17.814
			c4.58,2.76,14.068,6.033,21.441,6.033c7.499,0,10.613-2.609,10.613-6.709c0-4.076-2.45-6.033-11.76-9.146
			c-16.51-5.554-22.896-14.554-22.735-24.031c0-14.861,12.754-26.172,32.537-26.172c9.317,0,17.651,2.141,22.555,4.579
			l-4.407,17.173c-3.596-1.969-10.451-4.568-17.332-4.568c-6.035,0-9.457,2.45-9.457,6.537c0,3.755,3.08,5.713,12.893,9.159
			c15.203,5.221,21.593,12.915,21.74,24.661C186.689,139.928,174.898,150.885,152.046,150.885z"/>
	</g>
</g>
</svg>
