<?xml version="1.0" encoding="utf-8"?>
<!-- Generator: Adobe Illustrator 16.0.0, SVG Export Plug-In . SVG Version: 6.00 Build 0)  -->
<!DOCTYPE svg PUBLIC "-//W3C//DTD SVG 1.1//EN" "http://www.w3.org/Graphics/SVG/1.1/DTD/svg11.dtd">
<svg version="1.1" id="Layer_1" xmlns="http://www.w3.org/2000/svg" xmlns:xlink="http://www.w3.org/1999/xlink" x="0px" y="0px"
	 width="173.5px" height="200px" viewBox="606 0 173.5 200" enable-background="new 606 0 173.5 200" xml:space="preserve">
<g>
	<path fill="#333333" d="M625.813,117.773c0,22.188,0,44.297,0,66.563c33.516,0,66.836,0,100.43,0c0-22.188,0-44.336,0-66.602
		c4.414,0,8.594,0,12.93,0c0,26.484,0,52.969,0,79.531c-42.148,0-84.18,0-126.367,0c0-26.523,0-52.93,0-79.492
		C617.023,117.773,621.281,117.773,625.813,117.773z"/>
	<path fill="#333333" d="M713.078,155.234c0,5.43,0,10.664,0,16.094c-25.391,0-50.742,0-76.25,0c0-5.273,0-10.625,0-16.094
		C662.258,155.234,687.531,155.234,713.078,155.234z"/>
	<path fill="#333333" d="M655.5,69.258c2.813-4.766,5.469-9.297,8.32-14.063c21.953,12.93,43.828,25.82,65.938,38.867
		c-2.773,4.688-5.469,9.297-8.281,14.102C699.445,95.195,677.57,82.266,655.5,69.258z"/>
	<path fill="#333333" d="M715.852,128.594c-24.688-6.641-49.18-13.203-73.906-19.883c1.406-5.273,2.813-10.43,4.219-15.781
		c24.648,6.641,49.219,13.203,73.945,19.883C718.664,118.125,717.258,123.281,715.852,128.594z"/>
	<path fill="#333333" d="M745.93,82.656c-4.609,3.125-8.984,6.133-13.516,9.18c-14.375-21.094-28.711-42.07-43.125-63.242
		c4.492-3.086,8.945-6.094,13.516-9.219C717.18,40.508,731.516,61.484,745.93,82.656z"/>
	<path fill="#333333" d="M715.07,134.141c-0.508,5.547-1.016,10.82-1.484,16.289c-25.469-2.344-50.781-4.688-76.25-7.031
		c0.508-5.508,1.016-10.781,1.523-16.289C664.25,129.453,689.523,131.797,715.07,134.141z"/>
</g>
</svg>
