
<svg version="1.1" id="Layer_1" xmlns="http://www.w3.org/2000/svg" xmlns:xlink="http://www.w3.org/1999/xlink" x="0px" y="0px"
	 width="32px" height="32px" viewBox="0 0 32 32" enable-background="new 0 0 32 32" xml:space="preserve">
<g>
	<path fill="#808184" d="M0,16c0,8.822,7.178,16,16,16s16-7.178,16-16c0-8.822-7.178-16-16-16S0,7.178,0,16z M31,16
		c0,8.271-6.729,15-15,15S1,24.271,1,16C1,7.729,7.729,1,16,1S31,7.729,31,16z"/>
	<path fill="#808184" d="M10.8,18.068c-0.098,0.099-0.146,0.227-0.146,0.354s0.049,0.257,0.146,0.354
		c0.195,0.195,0.513,0.195,0.707,0L16,14.284l4.493,4.491c0.194,0.195,0.512,0.195,0.707,0c0.194-0.194,0.194-0.512,0-0.707
		l-4.846-4.845c-0.195-0.195-0.512-0.195-0.707,0L10.8,18.068z"/>
</g>
</svg>
